<svg xmlns="http://www.w3.org/2000/svg" xmlns:xlink="http://www.w3.org/1999/xlink" width="500" zoomAndPan="magnify" viewBox="0 0 375 374.999991" height="500" preserveAspectRatio="xMidYMid meet" version="1.0"><defs><clipPath id="b9042c2129"><path d="M 84.5625 68.992188 L 290.0625 68.992188 L 290.0625 306.003906 L 84.5625 306.003906 Z M 84.5625 68.992188 " clip-rule="nonzero"/></clipPath><clipPath id="c4fbe26f6d"><path d="M 84.5625 95 L 290.0625 95 L 290.0625 279.6875 L 84.5625 279.6875 Z M 84.5625 95 " clip-rule="nonzero"/></clipPath><clipPath id="0c5c88a1fb"><path d="M 84.5625 68.992188 L 290.0625 68.992188 L 290.0625 306.003906 L 84.5625 306.003906 Z M 84.5625 68.992188 " clip-rule="nonzero"/></clipPath></defs><g clip-path="url(#b9042c2129)"><path fill="#ffd257" d="M 187.410156 306.003906 L 187.410156 292.84375 L 84.5625 227.304688 L 84.5625 240.460938 Z M 187.410156 213.566406 L 187.410156 226.804688 L 228.132812 200.824219 L 217.808594 194.242188 Z M 187.578125 68.992188 L 187.578125 82.152344 L 290.425781 147.691406 L 290.425781 134.53125 Z M 187.578125 161.433594 L 187.578125 148.191406 L 146.773438 174.175781 L 157.179688 180.75 L 187.578125 161.433594 " fill-opacity="1" fill-rule="nonzero"/></g><g clip-path="url(#c4fbe26f6d)"><path fill="#bb8a04" d="M 187.410156 279.601562 L 187.410156 266.363281 L 84.5625 200.824219 L 84.5625 214.0625 Z M 187.410156 253.203125 L 248.871094 213.980469 L 238.542969 207.402344 L 187.410156 240.042969 Z M 187.578125 95.390625 L 187.578125 108.636719 L 290.425781 174.175781 L 290.425781 160.929688 Z M 187.578125 121.789062 L 126.035156 161.015625 L 136.445312 167.59375 L 187.578125 134.949219 L 187.578125 121.789062 " fill-opacity="1" fill-rule="nonzero"/><path fill="#bb8a04" d="M 187.410156 253.203125 L 187.410156 239.964844 L 84.5625 174.425781 L 84.5625 187.664062 Z M 187.410156 279.601562 L 269.691406 227.222656 L 259.28125 220.558594 L 187.410156 266.445312 Z M 187.578125 121.789062 L 187.578125 135.035156 L 290.425781 200.574219 L 290.425781 187.332031 Z M 187.578125 95.390625 L 105.296875 147.777344 L 115.628906 154.4375 L 187.578125 108.550781 L 187.578125 95.390625 " fill-opacity="1" fill-rule="nonzero"/></g><g clip-path="url(#0c5c88a1fb)"><path fill="#ffd257" d="M 187.410156 226.804688 L 187.410156 213.566406 L 84.5625 148.023438 L 84.5625 161.265625 Z M 187.410156 306.003906 L 290.425781 240.378906 L 280.015625 233.800781 L 187.410156 292.84375 Z M 187.578125 148.191406 L 187.578125 161.433594 L 290.425781 226.972656 L 290.425781 213.730469 Z M 187.578125 68.992188 L 84.5625 134.617188 L 94.890625 141.195312 L 187.578125 82.152344 L 187.578125 68.992188 " fill-opacity="1" fill-rule="nonzero"/></g></svg>